<?xml version="1.0" encoding="utf-8"?>
<!-- Generator: Adobe Illustrator 19.0.0, SVG Export Plug-In . SVG Version: 6.00 Build 0)  -->
<svg version="1.1" id="图层_1" xmlns="http://www.w3.org/2000/svg" xmlns:xlink="http://www.w3.org/1999/xlink" x="0px" y="0px"
	 width="32px" height="32px" viewBox="0 0 32 32" style="enable-background:new 0 0 32 32;" xml:space="preserve">
<style type="text/css">
	.st0{fill:#7C848E;}
</style>
<g id="XMLID_11_">
	<g id="XMLID_58_">
		<g id="XMLID_13_">
			<polygon class="st0" points="1,4 1,6 29,6 29,22 31,22 31,4 			"/>
		</g>
	</g>
	<g id="XMLID_56_">
		<g id="XMLID_12_">
			<polygon class="st0" points="3,10 1,10 1,28 31,28 31,26 3,26 			"/>
		</g>
	</g>
</g>
<g id="XMLID_1_">
	<g id="XMLID_15_">
		<g id="XMLID_18_">
			<g id="XMLID_21_">
				
					<rect id="XMLID_7_" x="10.522" y="11.706" transform="matrix(0.7071 0.7071 -0.7071 0.7071 13.0551 -6.1067)" class="st0" width="6.753" height="2"/>
			</g>
			<g id="XMLID_20_">
				
					<rect id="XMLID_6_" x="17.274" y="9.329" transform="matrix(0.7071 0.7071 -0.7071 0.7071 14.3364 -9.2001)" class="st0" width="2" height="6.753"/>
			</g>
		</g>
	</g>
	<g id="XMLID_14_">
		<rect id="XMLID_5_" x="11" y="15" class="st0" width="10" height="2"/>
	</g>
	<g id="XMLID_23_">
		<rect id="XMLID_4_" x="11" y="18" class="st0" width="10" height="2"/>
	</g>
	<g id="XMLID_24_">
		<rect id="XMLID_3_" x="15" y="15" class="st0" width="2" height="8"/>
	</g>
</g>
</svg>
