<?xml version="1.0" encoding="utf-8"?>
<!-- Generator: Adobe Illustrator 19.0.0, SVG Export Plug-In . SVG Version: 6.00 Build 0)  -->
<svg version="1.0" id="图层_1" xmlns="http://www.w3.org/2000/svg" xmlns:xlink="http://www.w3.org/1999/xlink" x="0px" y="0px"
	 width="48px" height="48px" viewBox="0 0 48 48" enable-background="new 0 0 48 48" xml:space="preserve">
<path id="XMLID_2_" fill="#00A2FF" d="M37.1,31c0,1.1-0.9,2-2,2c-0.5,0-0.9-0.2-1.3-0.5l-7.7,4.3v0.1c0,1.1-0.9,2-2,2s-2-0.9-2-2
	v-0.1l-7.7-4.4C14,32.8,13.6,33,13.1,33c-1.1,0-2-0.9-2-2c0-0.7,0.4-1.4,1-1.7v-9.6c-0.6-0.3-1-1-1-1.7c0-1.1,0.9-2,2-2
	c0.5,0,0.9,0.2,1.3,0.5l7.7-4.3v-0.1c0-1.1,0.9-2,2-2s2,0.9,2,2v0.1l7.7,4.4c0.3-0.3,0.8-0.5,1.3-0.5c1.1,0,2,0.9,2,2
	c0,0.7-0.4,1.4-1,1.7v9.5C36.7,29.6,37.1,30.3,37.1,31z M33.1,30.8L33.1,30.8l-8-4.7v9.2c0,0,0.1,0,0.1,0.1L33.1,30.8z M15.1,30.8
	l7.9,4.5c0,0,0.1,0,0.1-0.1V26L15,30.5C15,30.6,15.1,30.7,15.1,30.8z M14.1,19.8v9l7.9-4.4L14.1,19.8z M15.2,18.1l7.9,4.5v-8.9
	c0,0-0.1,0-0.1-0.1L15.2,18.1z M25.2,13.7c0,0-0.1,0-0.1,0.1v8.9l7.9-4.4L25.2,13.7z M26,24.3l8.1,4.7v-9.2L26,24.3z M24.1,3
	c-11.6,0-21,9.4-21,21s9.4,21,21,21c10.6,0,19.3-7.8,20.8-18h2c-1.5,11.3-11.1,20-22.8,20c-12.7,0-23-10.3-23-23s10.3-23,23-23
	c11.7,0,21.3,8.7,22.8,20h-2C43.4,10.8,34.7,3,24.1,3z"/>
</svg>
