<?xml version="1.0" encoding="utf-8"?>
<!-- Generator: Adobe Illustrator 19.0.0, SVG Export Plug-In . SVG Version: 6.00 Build 0)  -->
<svg version="1.1" id="图层_1" xmlns="http://www.w3.org/2000/svg" xmlns:xlink="http://www.w3.org/1999/xlink" x="0px" y="0px"
	 viewBox="0 0 32 32" style="enable-background:new 0 0 32 32;" xml:space="preserve">
<style type="text/css">
	.st0{fill:none;}
	.st1{fill-rule:evenodd;clip-rule:evenodd;fill:#00A4FF;}
</style>
<g>
	<path class="st0" d="M-288.5-2205.5h-2v-2h0c0-4.4-3.6-8-8-8s-8,3.6-8,8h0v2h-2v0h-0.1v4h0.1v8h-0.1v4h20V-2205.5z M-292.5-2193.5
		h-12v-8h12V-2193.5z M-292.5-2205.5h-12v0h2v-2c0-2.2,1.8-4,4-4s4,1.8,4,4v2L-292.5-2205.5L-292.5-2205.5z M-324.5-2227.5v30.5
		c0,0,0.2,21.6,26,27.5c25.8-5.9,26-27.5,26-27.5v-30.5H-324.5z M-276.5-2197.1c0,0-0.1,4.6-2.8,9.7c-3.6,6.9-10.1,11.5-19.2,13.8
		c-21.4-5.4-22-22.7-22-23.4v-26.5h44V-2197.1z"/>
</g>
<g id="XMLID_9_">
	<g id="XMLID_62_">
		<path id="XMLID_63_" class="st1" d="M14,25h4v-2h-4V25z M27,25V1H5v30h22v-2h-2v0H7V3h18v22H27z M21.2,10.3L22.7,9
			c-1.6-1.8-4-3-6.7-3c-2.7,0-5,1.2-6.7,3l1.5,1.3C12.1,8.9,13.9,8,16,8C18.1,8,19.9,8.9,21.2,10.3z M15,14v2h2v-2H15z M19.7,11.7
			c-0.9-1-2.2-1.7-3.7-1.7c-1.5,0-2.8,0.7-3.7,1.7l1.5,1.3c0.5-0.6,1.3-1,2.2-1c0.9,0,1.7,0.4,2.2,1L19.7,11.7z"/>
	</g>
</g>
</svg>
