<?xml version="1.0" encoding="utf-8"?>
<!-- Generator: Adobe Illustrator 21.1.0, SVG Export Plug-In . SVG Version: 6.00 Build 0)  -->
<svg version="1.1" id="图层_1" xmlns="http://www.w3.org/2000/svg" xmlns:xlink="http://www.w3.org/1999/xlink" x="0px" y="0px"
	 width="32px" height="32px" viewBox="0 0 32 32" style="enable-background:new 0 0 32 32;" xml:space="preserve">
<style type="text/css">
	.st0{fill:#7C848E;}
</style>
<g id="XMLID_36_">
	<path id="XMLID_39_" class="st0" d="M16,29C8.8,29,3,23.2,3,16C3,8.8,8.8,3,16,3c6.5,0,11.9,4.8,12.8,11h2C29.9,6.7,23.6,1,16,1
		C7.7,1,1,7.7,1,16s6.7,15,15,15c7.6,0,13.9-5.7,14.9-13h-2C27.9,24.2,22.5,29,16,29z"/>
	<polygon class="st0" points="13.2,20.2 8.9,16 13.2,11.8 18.8,17.4 20.2,16 13.2,8.9 6.1,16 13.2,23.1 16,20.2 14.6,18.8 	"/>
	<polygon class="st0" points="18.8,11.8 23.1,16 18.8,20.2 13.2,14.6 11.8,16 18.8,23.1 25.9,16 18.8,8.9 16,11.8 17.4,13.2 	"/>
</g>
</svg>
