<?xml version="1.0" encoding="utf-8"?>
<!-- Generator: Adobe Illustrator 19.0.0, SVG Export Plug-In . SVG Version: 6.00 Build 0)  -->
<svg version="1.0" id="图层_1" xmlns="http://www.w3.org/2000/svg" xmlns:xlink="http://www.w3.org/1999/xlink" x="0px" y="0px"
	 width="32px" height="32px" viewBox="-7 9 32 32" enable-background="new -7 9 32 32" xml:space="preserve">
<path id="XMLID_2_" fill="#757A80" d="M17.1,28c0,1.1-0.9,2-2,2c-0.2,0-0.4,0-0.6-0.1l-3.4,2V32c0,1.1-0.9,2-2,2s-2-0.9-2-2v-0.1
	l-3.4-2C3.5,30,3.3,30,3.1,30c-1.1,0-2-0.9-2-2c0-0.7,0.4-1.4,1-1.7v-3.6c-0.6-0.3-1-1-1-1.7c0-1.1,0.9-2,2-2c0.6,0,1.1,0.2,1.4,0.6
	l2.6-1.5V18c0-1.1,0.9-2,2-2s2,0.9,2,2c0,0.1,0,0.1,0,0.1l2.6,1.5c0.4-0.4,0.9-0.6,1.4-0.6c1.1,0,2,0.9,2,2c0,0.7-0.4,1.4-1,1.7v3.5
	C16.7,26.6,17.1,27.3,17.1,28z M4.1,23.2v3.1c0.2,0.1,0.4,0.3,0.5,0.5l2.6-1.7L4.1,23.2z M8.1,19.7c0,0-0.1,0-0.1-0.1l-3,1.8l0,0
	l3.1,1.8V19.7z M8.1,26.9l-2.8,1.8L8,30.3c0,0,0.1,0,0.1-0.1V26.9z M14.1,26.3V23L11,25l2.7,1.6C13.8,26.5,13.9,26.4,14.1,26.3z
	 M10.1,30.3c0,0,0.1,0,0.1,0.1l2.9-1.8l-3-1.8V30.3z M10.2,19.7c0,0-0.1,0-0.1,0.1v3.5l2.9-1.9L10.2,19.7z M21.9,23
	c-1-6.2-6.3-11-12.8-11c-7.2,0-13,5.8-13,13s5.8,13,13,13c6.5,0,11.9-4.8,12.8-11h2c-1,7.3-7.2,13-14.9,13C0.7,40-6,33.3-6,25
	S0.7,10,9,10c7.6,0,13.9,5.7,14.9,13H21.9z"/>
</svg>
