<?xml version="1.0" encoding="utf-8"?>
<!-- Generator: Adobe Illustrator 21.1.0, SVG Export Plug-In . SVG Version: 6.00 Build 0)  -->
<svg version="1.1" id="图层_1" xmlns="http://www.w3.org/2000/svg" xmlns:xlink="http://www.w3.org/1999/xlink" x="0px" y="0px"
	 viewBox="0 0 32 32" style="enable-background:new 0 0 32 32;" xml:space="preserve">
<style type="text/css">
	.st0{fill:#00A4FF;}
</style>
<path id="XMLID_2_" class="st0" d="M24.1,19c0,1.1-0.9,2-2,2c-0.2,0-0.4,0-0.6-0.1l-3.4,2V23c0,1.1-0.9,2-2,2s-2-0.9-2-2v-0.1
	l-3.4-2C10.5,21,10.3,21,10.1,21c-1.1,0-2-0.9-2-2c0-0.7,0.4-1.4,1-1.7v-3.6c-0.6-0.3-1-1-1-1.7c0-1.1,0.9-2,2-2
	c0.6,0,1.1,0.2,1.4,0.6l2.6-1.5V9c0-1.1,0.9-2,2-2s2,0.9,2,2c0,0.1,0,0.1,0,0.1l2.6,1.5c0.4-0.4,0.9-0.6,1.4-0.6c1.1,0,2,0.9,2,2
	c0,0.7-0.4,1.4-1,1.7v3.5C23.7,17.6,24.1,18.3,24.1,19z M11.1,14.2v3.1c0.2,0.1,0.4,0.3,0.5,0.5l2.6-1.7L11.1,14.2z M15.1,10.7
	c0,0-0.1,0-0.1-0.1l-3,1.8l0,0l3.1,1.8V10.7z M15.1,17.9l-2.8,1.8l2.7,1.6c0,0,0.1,0,0.1-0.1V17.9z M21.1,17.3V14L18,16l2.7,1.6
	C20.8,17.5,20.9,17.4,21.1,17.3z M17.1,21.3c0,0,0.1,0,0.1,0.1l2.9-1.8l-3-1.8V21.3z M17.2,10.7c0,0-0.1,0-0.1,0.1v3.5l2.9-1.9
	L17.2,10.7z M28.9,14c-1-6.2-6.3-11-12.8-11c-7.2,0-13,5.8-13,13s5.8,13,13,13c6.5,0,11.9-4.8,12.8-11h2c-1,7.3-7.2,13-14.9,13
	C7.7,31,1,24.3,1,16S7.7,1,16,1c7.6,0,13.9,5.7,14.9,13H28.9z"/>
</svg>
