<?xml version="1.0" encoding="utf-8"?>
<!-- Generator: Adobe Illustrator 17.0.0, SVG Export Plug-In . SVG Version: 6.00 Build 0)  -->
<!DOCTYPE svg PUBLIC "-//W3C//DTD SVG 1.1//EN" "http://www.w3.org/Graphics/SVG/1.1/DTD/svg11.dtd">
<svg version="1.1" id="图层_1" xmlns="http://www.w3.org/2000/svg" xmlns:xlink="http://www.w3.org/1999/xlink" x="0px" y="0px"
	 width="48px" height="48px" viewBox="423 928 48 48" style="enable-background:new 423 928 48 48;" xml:space="preserve">
<style type="text/css">
	.st0{opacity:0.2;fill:#2277DA;}
	.st1{opacity:0.2;fill:#FFFFFF;}
	.st2{enable-background:new    ;}
	.st3{fill:#0085F6;}
	.st4{fill:url(#SVGID_1_);}
	.st5{fill:url(#SVGID_2_);}
	.st6{fill:#2277DA;}
	.st7{fill:#757A80;}
	.st8{fill-rule:evenodd;clip-rule:evenodd;fill:#2277DA;}
	.st9{fill:#2274E5;}
	.st10{fill:url(#SVGID_3_);}
	.st11{fill:#00A4FF;}
	.st12{fill-rule:evenodd;clip-rule:evenodd;fill:url(#SVGID_4_);}
	.st13{fill-rule:evenodd;clip-rule:evenodd;fill:url(#SVGID_5_);}
	.st14{fill:url(#SVGID_6_);}
	.st15{fill:url(#SVGID_7_);}
	.st16{fill:url(#SVGID_8_);}
	.st17{fill:url(#SVGID_9_);}
	.st18{fill:url(#SVGID_10_);}
	.st19{fill:url(#SVGID_11_);}
	.st20{fill:url(#SVGID_12_);}
	.st21{fill:url(#SVGID_13_);}
	.st22{fill:url(#SVGID_14_);}
	.st23{fill:url(#SVGID_15_);}
	.st24{fill:url(#SVGID_16_);}
	.st25{fill:url(#SVGID_17_);}
	.st26{fill:url(#SVGID_18_);}
	.st27{fill:url(#SVGID_19_);}
	.st28{fill:url(#SVGID_20_);}
	.st29{fill:url(#SVGID_21_);}
	.st30{fill:url(#SVGID_22_);}
	.st31{fill:url(#SVGID_23_);}
	.st32{fill:url(#SVGID_24_);}
	.st33{fill:url(#SVGID_25_);}
	.st34{fill:url(#SVGID_26_);}
	.st35{fill:url(#SVGID_27_);}
	.st36{fill:url(#SVGID_28_);}
	.st37{fill:url(#SVGID_29_);}
	.st38{fill:url(#SVGID_30_);}
	.st39{fill:url(#SVGID_31_);}
	.st40{fill:url(#SVGID_32_);}
	.st41{fill:url(#SVGID_33_);}
	.st42{fill-rule:evenodd;clip-rule:evenodd;fill:url(#SVGID_34_);}
	.st43{fill-rule:evenodd;clip-rule:evenodd;fill:url(#SVGID_35_);}
	.st44{fill-rule:evenodd;clip-rule:evenodd;fill:url(#SVGID_36_);}
	.st45{fill:url(#SVGID_37_);}
	.st46{fill:url(#SVGID_38_);}
	.st47{fill:url(#SVGID_39_);}
	.st48{fill:url(#SVGID_40_);}
	.st49{fill-rule:evenodd;clip-rule:evenodd;fill:url(#SVGID_41_);}
	.st50{fill-rule:evenodd;clip-rule:evenodd;fill:url(#SVGID_42_);}
	.st51{fill-rule:evenodd;clip-rule:evenodd;fill:url(#SVGID_43_);}
	.st52{fill:url(#SVGID_44_);}
	.st53{fill:url(#SVGID_45_);}
	.st54{fill:url(#SVGID_46_);}
	.st55{fill:url(#SVGID_47_);}
	.st56{fill-rule:evenodd;clip-rule:evenodd;fill:url(#SVGID_48_);}
	.st57{fill:#020202;}
	.st58{fill-rule:evenodd;clip-rule:evenodd;fill:url(#SVGID_49_);}
	.st59{fill-rule:evenodd;clip-rule:evenodd;fill:url(#SVGID_50_);}
	.st60{fill:url(#SVGID_51_);}
	.st61{fill:url(#SVGID_52_);}
	.st62{fill:url(#SVGID_53_);}
	.st63{fill:url(#SVGID_54_);}
	.st64{fill-rule:evenodd;clip-rule:evenodd;fill:url(#SVGID_55_);}
	.st65{fill:#0080FF;}
	.st66{fill-rule:evenodd;clip-rule:evenodd;fill:url(#SVGID_56_);}
	.st67{fill:none;}
	.st68{fill-rule:evenodd;clip-rule:evenodd;fill:#757A80;}
	.st69{fill-rule:evenodd;clip-rule:evenodd;fill:#00A4FF;}
</style>
<path class="st11" d="M439.9,941.9L439.9,941.9c3.1,0,7.5,2.3,11.1,6c2.6,2.6,4.6,5.7,5.5,8.4c0.7,2.3,0.6,4.1-0.3,5
	c-0.5,0.5-1.3,0.7-2.3,0.7c-3.1,0-7.5-2.3-11.1-6c-2.6-2.6-4.6-5.7-5.5-8.4c-0.7-2.3-0.6-4.1,0.3-5
	C438.2,942.2,438.9,941.9,439.9,941.9 M439.9,939.9c-1.5,0-2.8,0.4-3.7,1.3c-3,3-0.7,10.3,5.2,16.2c4.2,4.2,9,6.6,12.6,6.6
	c1.5,0,2.8-0.4,3.7-1.3c3-3,0.7-10.3-5.2-16.2C448.3,942.3,443.5,939.9,439.9,939.9L439.9,939.9z"/>
<path class="st11" d="M454.1,941.9L454.1,941.9c1,0,1.8,0.3,2.3,0.7c0.9,0.9,1,2.7,0.3,5c-0.9,2.7-2.9,5.8-5.5,8.4
	c-3.6,3.6-8,6-11.1,6c-1,0-1.8-0.3-2.3-0.7c-0.9-0.9-1-2.7-0.3-5c0.9-2.7,2.9-5.8,5.5-8.4C446.5,944.3,450.9,941.9,454.1,941.9
	 M454.1,939.9c-3.6,0-8.4,2.4-12.6,6.6c-5.9,5.9-8.3,13.2-5.2,16.2c0.9,0.9,2.2,1.3,3.7,1.3c3.6,0,8.4-2.4,12.6-6.6
	c5.9-5.9,8.3-13.2,5.2-16.2C456.8,940.4,455.6,939.9,454.1,939.9L454.1,939.9z"/>
<circle class="st69" cx="435.5" cy="932.5" r="2.5"/>
<circle class="st69" cx="458.5" cy="971.5" r="2.5"/>
<path class="st11" d="M459,931.2V931h-19v2h18l10.7,19L458,971c0.6,0.2,0.6,1.6,1,2l12-21L459,931.2z"/>
<path class="st11" d="M454,971h-18l-10.7-19l10.7-19c-0.6-0.2-1.6,0.4-2,0l-11,19l12,21h19V971z"/>
<circle class="st11" cx="447" cy="952" r="2"/>
</svg>
