<?xml version="1.0" encoding="utf-8"?>
<!-- Generator: Adobe Illustrator 19.0.0, SVG Export Plug-In . SVG Version: 6.00 Build 0)  -->
<svg version="1.1" id="图层_1" xmlns="http://www.w3.org/2000/svg" xmlns:xlink="http://www.w3.org/1999/xlink" x="0px" y="0px"
	 viewBox="0 0 32 32" style="enable-background:new 0 0 32 32;" xml:space="preserve">
<style type="text/css">
	.st0{fill:none;}
	.st1{fill:#7C848E;}
</style>
<g>
	<path class="st0" d="M-288.5-2205.5h-2v-2h0c0-4.4-3.6-8-8-8s-8,3.6-8,8h0v2h-2v0h-0.1v4h0.1v8h-0.1v4h20V-2205.5z M-292.5-2193.5
		h-12v-8h12V-2193.5z M-292.5-2205.5h-12v0h2v-2c0-2.2,1.8-4,4-4s4,1.8,4,4v2L-292.5-2205.5L-292.5-2205.5z M-324.5-2227.5v30.5
		c0,0,0.2,21.6,26,27.5c25.8-5.9,26-27.5,26-27.5v-30.5H-324.5z M-276.5-2197.1c0,0-0.1,4.6-2.8,9.7c-3.6,6.9-10.1,11.5-19.2,13.8
		c-21.4-5.4-22-22.7-22-23.4v-26.5h44V-2197.1z"/>
</g>
<g id="XMLID_10_">
	<g id="XMLID_56_">
		<path id="XMLID_58_" class="st1" d="M3,16c0-4.7,2.5-8.9,6.3-11.1l-1-1.7C3.9,5.8,1,10.5,1,16c0,5.5,2.9,10.2,7.3,12.8l1-1.7
			C5.5,24.9,3,20.7,3,16z M16,1c-0.1,0-0.2,0-0.4,0l0.8,0C16.3,1,16.1,1,16,1z M23.7,3.2l-1,1.7C26.5,7.1,29,11.3,29,16
			c0,4.7-2.5,8.9-6.3,11.1l1,1.7C28.1,26.2,31,21.5,31,16C31,10.5,28.1,5.8,23.7,3.2z M19.7,7.8l-1,1.7c0,0,0,0,0,0L16,14
			c0,0,0,0,0,0c-1.1,0-2,0.9-2,2c0,1.1,0.9,2,2,2c1.1,0,2-0.9,2-2c0-0.4-0.1-0.7-0.3-1l2.7-4.5C22,11.9,23,13.8,23,16
			c0,3.9-3.1,7-7,7c-3.9,0-7-3.1-7-7c0-2.5,1.4-4.8,3.4-6l-1-1.7C8.7,9.9,7,12.7,7,16c0,5,4,9,9,9s9-4,9-9
			C25,12.4,22.8,9.2,19.7,7.8z"/>
	</g>
</g>
</svg>
