<?xml version="1.0" encoding="utf-8"?>
<!-- Generator: Adobe Illustrator 21.0.0, SVG Export Plug-In . SVG Version: 6.00 Build 0)  -->
<svg version="1.1" id="图层_1" xmlns="http://www.w3.org/2000/svg" xmlns:xlink="http://www.w3.org/1999/xlink" x="0px" y="0px"
	 viewBox="0 0 32 32" style="enable-background:new 0 0 32 32;" xml:space="preserve">
<style type="text/css">
	.st0{fill:#00A4FF;}
</style>
<g id="图层_2">
</g>
<g>
	<path class="st0" d="M31,11.5c0,2.1-1.3,3.8-3,4.3V24h-2v-8.1c-1.2-0.3-2.2-1.1-2.8-2.2c-0.7,1.4-2.1,2.3-3.6,2.3
		c-1.6,0-2.9-0.9-3.6-2.3c-0.7,1.4-2.1,2.3-3.6,2.3c-1.6,0-2.9-0.9-3.6-2.3c-0.6,1.1-1.6,2-2.7,2.2V27h5v-8h1h1h6h1h1v8h7v2H6H5H4
		V15.8c-1.7-0.5-3-2.3-3-4.3c0-0.1,0-0.3,0-0.4l0,0l0,0L5,6V4V2h2h18h2v2v2l0,0l4,5.1l0,0l0,0C31,11.3,31,11.4,31,11.5z M13,27h6v-6
		h-6V27z M25,4H7v2h18V4z M25.8,8H6.2L3,11.6C3,12.9,4,14,5.1,14c0.7,0,1.4-0.5,1.8-1.2L7.8,11h1.8l0.9,1.8c0.4,0.8,1.1,1.2,1.8,1.2
		s1.4-0.5,1.8-1.2L15,11h1.8l0.9,1.8c0.4,0.8,1.1,1.2,1.8,1.2c0.7,0,1.4-0.5,1.8-1.2l0.9-1.8H24l0.9,1.8c0.4,0.8,1.1,1.2,1.8,1.2
		c1.2,0,2.1-1.1,2.1-2.4L25.8,8z"/>
</g>
</svg>
