<?xml version="1.0" encoding="utf-8"?>
<!-- Generator: Adobe Illustrator 19.0.0, SVG Export Plug-In . SVG Version: 6.00 Build 0)  -->
<svg version="1.1" id="图层_1" xmlns="http://www.w3.org/2000/svg" xmlns:xlink="http://www.w3.org/1999/xlink" x="0px" y="0px"
	 viewBox="0 0 32 32" style="enable-background:new 0 0 32 32;" xml:space="preserve">
<style type="text/css">
	.st0{fill-rule:evenodd;clip-rule:evenodd;fill:#00A4FF;}
</style>
<g id="XMLID_17_">
	<g id="XMLID_105_">
		<path id="XMLID_106_" class="st0" d="M29.2,7.5L16,0v2l11.6,6.6L29.2,7.5z M4,8.9L16,2V0L2,8h0v0l0,0v2l0,0v12l0,0v2l0,0v0h0l14,8
			v-2L4,23.1V8.9z M30,11l-2,1.3v10.8L16,30v2l14-8h0v0l0,0v-2l0,0V11z M30,8v2l0,0L30,8L30,8z M16,24l7-4h0v0l0,0v-2l0,0v-4l0,0v-2
			l-7-4v2l5.3,3L16,16h0l-5.2-3l5.3-3V8l-7,4v2l0,0v4l0,0v2l0,0v0h0L16,24l0-1h0V24z M17,17.4l4-2.3v4l-4,2.3V17.4z M15,21.4l-4-2.3
			v-4l4,2.3V21.4z"/>
	</g>
</g>
</svg>
