<?xml version="1.0" encoding="utf-8"?>
<!-- Generator: Adobe Illustrator 19.0.0, SVG Export Plug-In . SVG Version: 6.00 Build 0)  -->
<svg version="1.1" id="图层_1" xmlns="http://www.w3.org/2000/svg" xmlns:xlink="http://www.w3.org/1999/xlink" x="0px" y="0px"
	 width="32px" height="32px" viewBox="-7 9 32 32" style="enable-background:new -7 9 32 32;" xml:space="preserve">
<style type="text/css">
	.st0{fill:#00A4FF;}
</style>
<g id="XMLID_11_">
	<g id="XMLID_58_">
		<g id="XMLID_13_">
			<polygon class="st0" points="-6,13 -6,15 22,15 22,31 24,31 24,13 			"/>
		</g>
	</g>
	<g id="XMLID_56_">
		<g id="XMLID_12_">
			<polygon class="st0" points="-4,19 -6,19 -6,37 24,37 24,35 -4,35 			"/>
		</g>
	</g>
</g>
<g id="XMLID_1_">
	<g id="XMLID_15_">
		<g id="XMLID_18_">
			<g id="XMLID_21_">
				
					<rect id="XMLID_7_" x="3.522" y="20.705" transform="matrix(-0.7071 -0.7071 0.7071 -0.7071 -3.5718 41.9312)" class="st0" width="6.753" height="2"/>
			</g>
			<g id="XMLID_20_">
				
					<rect id="XMLID_6_" x="10.274" y="18.329" transform="matrix(-0.7071 -0.7071 0.7071 -0.7071 3.8976 45.0255)" class="st0" width="2" height="6.753"/>
			</g>
		</g>
	</g>
	<g id="XMLID_14_">
		<rect id="XMLID_5_" x="4" y="24" class="st0" width="10" height="2"/>
	</g>
	<g id="XMLID_23_">
		<rect id="XMLID_4_" x="4" y="27" class="st0" width="10" height="2"/>
	</g>
	<g id="XMLID_24_">
		<rect id="XMLID_3_" x="8" y="24" class="st0" width="2" height="8"/>
	</g>
</g>
</svg>
