<?xml version="1.0" encoding="utf-8"?>
<!-- Generator: Adobe Illustrator 22.1.0, SVG Export Plug-In . SVG Version: 6.00 Build 0)  -->
<svg version="1.1" id="圖層_1" xmlns="http://www.w3.org/2000/svg" xmlns:xlink="http://www.w3.org/1999/xlink" x="0px" y="0px"
	 width="32px" height="32px" viewBox="0 0 32 32" style="enable-background:new 0 0 32 32;" xml:space="preserve">
<style type="text/css">
	.st0{fill:#00A4FF;}
</style>
<g>
	<path class="st0" d="M26.6,11.9c0,0.5-0.2,1.1-0.2,1.5l1.1,0.3l-1.1,0.2c0,0.6,0,1.1,0,1.7l0.8,0.5l-0.8,0.2c0,0.6,0,1.2,0.2,1.8
		l0.8,0.2l-0.8,0.2c0,0.5,0.2,0.8,0.2,1.2c1.2,0.5,2.6,0.3,3.5-0.5c1.7-1.7,2.1-4.1,1.4-6.4C31,10.9,27.8,11.7,26.6,11.9L26.6,11.9
		L26.6,11.9z"/>
	<path class="st0" d="M5.5,11.9c-1.2-0.3-4.4-1.1-5.2,0.8c-0.8,2.3-0.2,4.7,1.5,6.4C2.9,20,4.2,20,5.3,19.7c0-0.5,0.2-0.8,0.2-1.2
		l-0.8-0.2L5.5,18c0-0.6,0.2-1.2,0.2-1.8L4.9,16l0.8-0.3V14l-1.1-0.2l1.1-0.3C5.7,12.9,5.5,12.4,5.5,11.9L5.5,11.9z"/>
	<path class="st0" d="M30.2,20.2l-0.3,0.2h-0.1v0.1l0,0c0,0-0.1,0-0.3,0h-0.3H29h-0.3v0.3V25c-0.3,0-0.6-0.1-0.9-0.1
		c-0.7-0.1-1.5-0.2-2.3-0.2c-3,0-5.9,0.8-8.5,2.3V7.8c0.6-0.7,1.3-1.2,2.2-1.7C19.5,6,19.8,5.8,20,5.7c0.6-0.3,1.1-0.6,1.8-0.8
		c1.1-0.4,2.3-0.6,3.5-0.6c1.1,0,2.2,0.2,3.3,0.5v5.8v0.3H29h0.2h0.1l0.1-0.1c0.2-0.1,0.4-0.1,0.7-0.1h0.2h0.3v-0.3v-6
		c0.1-0.7-0.2-1.3-1-1.7c-1.6-0.6-3-0.8-4.4-0.8l0,0l0,0c-3.4,0.2-6.6,1.5-9.3,3.9c-2.3-2.3-5.6-3.7-9.3-3.9l0,0
		c-1.3,0-2.7,0.3-4.4,0.8c-0.6,0.2-1,0.9-1,1.7v6v0.3h0.3h0.2c0.1,0,0.2,0,0.3,0.1c0.2,0.1,0.4,0.1,0.8,0.1h0.1h0.3v-0.3V4.8
		c1.1-0.3,2.3-0.5,3.4-0.5c1.2,0,2.3,0.2,3.5,0.6c0.9,0.3,1.8,0.6,2.6,1.2l0.2,0.1c0.6,0.4,1.4,1,2.1,1.8v19.3
		C12.5,25.8,9.6,25,6.5,25c-1.1,0-2.1,0.1-3.2,0.2v-3.9V21v-0.3H3.1H2.9H2.6c-0.1,0-0.3,0-0.4-0.1l-0.1-0.1H2l-0.3-0.1l-0.4-0.1v0.4
		v4.9c0,0.9,0.5,1.6,1.4,1.8l0,0l0,0h0.2c0.4,0,0.8-0.1,1.2-0.1c1-0.1,1.7-0.2,2.5-0.2c0.2,0,0.5,0,0.7,0c2.6,0,5.3,0.9,7.8,2.7
		l0.1,0.1c0.2,0.1,0.5,0.3,0.8,0.3c0.2,0,0.6-0.2,0.9-0.6c2.3-1.7,5.3-2.6,8.5-2.6c1.2,0,2.3,0,3.5,0.2h0.2c0.9-0.1,1.5-0.9,1.5-1.8
		v-4.9v-0.6L30.2,20.2z"/>
</g>
</svg>
