<svg id="图层_1" data-name="图层 1" xmlns="http://www.w3.org/2000/svg" width="32" height="30" viewBox="0 0 32 30">
  <title>quanta-m</title>
  <circle cx="8.5" cy="2.5" r="2.5" style="fill: #7c848e"/>
  <circle cx="23.5" cy="27.5" r="2.5" style="fill: #7c848e"/>
  <g>
    <path d="M13,4h9.8l6.9,12L23,28c.6.2,1.5-.5,2,0l7-12L24,2H13V4Z" transform="translate(0 -1)" style="fill: #7c848e"/>
    <path d="M19,28H9.2L2.3,16,9,4c-.6-.2-1.5.5-2,0L0,16,8,30H19V28Z" transform="translate(0 -1)" style="fill: #7c848e"/>
  </g>
  <path d="M12.1,10.7h0c1.3,0,3.6.8,6,3.2a12.105,12.105,0,0,1,3,4.7c.3,1.1.3,2-.1,2.4a1.431,1.431,0,0,1-1.1.3c-1.3,0-3.6-.8-6-3.2a12.105,12.105,0,0,1-3-4.7c-.3-1.1-.3-2,.1-2.4a2.279,2.279,0,0,1,1.1-.3m0-2a3.486,3.486,0,0,0-2.5.9c-2,2-.7,6.4,2.8,9.9,2.4,2.4,5.2,3.7,7.4,3.7a3.486,3.486,0,0,0,2.5-.9c2-2,.7-6.4-2.8-9.9-2.4-2.3-5.2-3.7-7.4-3.7Z" transform="translate(0 -1)" style="fill: #7c848e"/>
  <path d="M19.9,10.7A2.279,2.279,0,0,1,21,11c.4.4.4,1.3.1,2.4a11.282,11.282,0,0,1-3,4.7c-2.3,2.3-4.7,3.2-6,3.2A2.279,2.279,0,0,1,11,21c-.4-.4-.4-1.3-.1-2.4a11.282,11.282,0,0,1,3-4.7c2.3-2.4,4.7-3.2,6-3.2m0-2c-2.2,0-5,1.4-7.4,3.7C9,15.9,7.7,20.3,9.7,22.3a3.486,3.486,0,0,0,2.5.9c2.2,0,5-1.4,7.4-3.7,3.5-3.5,4.8-7.9,2.8-9.9a3.656,3.656,0,0,0-2.5-.9Z" transform="translate(0 -1)" style="fill: #7c848e"/>
  <circle cx="16" cy="15" r="2" style="fill: #7c848e"/>
</svg>
