<?xml version="1.0" encoding="UTF-8"?>
<svg width="48px" height="48px" viewBox="0 0 48 48" version="1.1" xmlns="http://www.w3.org/2000/svg" xmlns:xlink="http://www.w3.org/1999/xlink">
    <!-- Generator: Sketch 51.2 (57519) - http://www.bohemiancoding.com/sketch -->
    <title>地理位置</title>
    <desc>Created with Sketch.</desc>
    <defs></defs>
    <g id="地理位置" stroke="none" stroke-width="1" fill="none" fill-rule="evenodd">
        <path d="M11.3511065,31.6353777 L12.9865716,33.2708428 C7.55144104,34.6240689 4,36.8612572 4,39 C4,42.3772623 12.855581,46 24,46 C35.144419,46 44,42.3772623 44,39 C44,36.8612572 40.448559,34.6240689 35.0134284,33.2708428 L36.6488935,31.6353777 C42.3047153,33.2640606 46,35.9554912 46,39 C46,43.9705627 36.1502645,48 24,48 C11.8497355,48 2,43.9705627 2,39 C2,35.9554912 5.69528471,33.2640606 11.3511065,31.6353777 Z" id="Combined-Shape" fill="#334966" fill-rule="nonzero"></path>
        <ellipse id="Oval-43" fill="#00A4FF" cx="24" cy="39" rx="11" ry="3"></ellipse>
        <path d="M24,37.2132034 L34.6066017,26.6066017 C40.4644661,20.7487373 40.4644661,11.2512627 34.6066017,5.39339828 C28.7487373,-0.464466094 19.2512627,-0.464466094 13.3933983,5.39339828 C7.53553391,11.2512627 7.53553391,20.7487373 13.3933983,26.6066017 L24,37.2132034 Z M29.6568542,21.6568542 C26.5326599,24.7810486 21.4673401,24.7810486 18.3431458,21.6568542 C15.2189514,18.5326599 15.2189514,13.4673401 18.3431458,10.3431458 C21.4673401,7.21895142 26.5326599,7.21895142 29.6568542,10.3431458 C32.7810486,13.4673401 32.7810486,18.5326599 29.6568542,21.6568542 Z" id="Combined-Shape" stroke="#334966" stroke-width="2"></path>
    </g>
</svg>