<?xml version="1.0" encoding="UTF-8"?>
<svg width="48px" height="48px" viewBox="0 0 48 48" version="1.1" xmlns="http://www.w3.org/2000/svg" xmlns:xlink="http://www.w3.org/1999/xlink">
    <!-- Generator: Sketch 52.2 (67145) - http://www.bohemiancoding.com/sketch -->
    <title>自媒体分享计划</title>
    <desc>Created with Sketch.</desc>
    <g id="自媒体分享计划" stroke="none" stroke-width="1" fill="none" fill-rule="evenodd">
        <g id="Group" transform="translate(3.000000, 3.000000)">
            <ellipse id="Oval-33" fill="#00A4FF" transform="translate(20.553191, 20.553191) rotate(-45.000000) translate(-20.553191, -20.553191) " cx="20.5531915" cy="20.5531915" rx="19.6595745" ry="6.25531915"></ellipse>
            <path d="M38.0073427,28.7766633 C39.7230874,33.1107059 39.7945767,36.5332591 38.1503214,38.1507059 C37.1789597,39.0005357 35.9073427,39.4258974 34.6205342,39.3302804 C31.2507044,39.3302804 26.7468746,37.5430463 22.1098959,34.4421953 C23.0035129,33.798791 23.8426193,33.1017697 24.7004916,32.3868761 C26.3116831,33.5289187 28.5421512,33.1491314 29.6850874,31.5388336 C30.5134704,30.3690889 30.5644065,28.8177697 29.8128746,27.5970889 C31.4598108,25.8697272 32.9995129,24.043174 34.4230448,22.1281527 C35.8403214,24.2156421 37.0386618,26.4434293 37.9975129,28.7766633 L38.0073427,28.7766633 Z M26.1481512,31.1536846 C26.0123214,31.0982804 25.8836406,31.0258974 25.7647895,30.9392165 L25.7201087,30.9392165 C25.6182363,30.8570038 25.5244065,30.7640676 25.4421938,30.6621953 C25.2545342,30.4146633 25.1347895,30.121557 25.0945767,29.8132591 C25.0615129,29.7113867 25.0373853,29.6068336 25.0230874,29.5004931 C25.0186193,28.5130463 25.8157257,27.7096846 26.8031725,27.7061102 C27.7897257,27.7016421 28.5930874,28.4987485 28.5975555,29.4853016 C28.6020235,30.4727485 27.8040235,31.2761102 26.8174704,31.2805782 C26.5887044,31.2814719 26.3617257,31.2376846 26.1481512,31.1536846 Z M20.5550023,33.3609187 C18.0984491,31.5861953 15.7884491,29.6166633 13.6464491,27.4719825 C11.499981,25.3299825 9.52776823,23.0199825 7.74947036,20.5643229 C11.3167895,15.6503229 15.6383214,11.3314719 20.5550023,7.76772717 C23.0115555,9.54245058 25.3215555,11.5119825 27.4626618,13.6566633 C29.6100235,15.7986633 31.5822363,18.1086633 33.3605342,20.5643229 C31.8780235,22.6062378 30.2587895,24.547174 28.5171299,26.3728336 C27.994364,26.0833016 27.4072576,25.9295995 26.8103214,25.926025 C24.8363214,25.933174 23.2421087,27.5390038 23.248364,29.5138974 C23.2501512,30.0241527 23.3618533,30.5281527 23.5754278,30.9928336 C22.5736831,31.8328336 21.5647895,32.6370889 20.5550023,33.3609187 Z M6.48857674,39.3302804 C5.20176823,39.4258974 3.93015121,39.0005357 2.95878951,38.1507059 C0.591598016,35.7558123 1.85159802,29.4021953 6.66819376,22.1281527 C8.40538525,24.4703229 10.3141512,26.6802378 12.3775129,28.7409187 C14.4355129,30.8015995 16.642747,32.706791 18.9822363,34.4421953 C14.3711725,37.5430463 9.83159802,39.3302804 6.48857674,39.3302804 Z M3.11159802,12.3519825 C1.39495972,8.05368462 1.34223631,4.59538675 2.96861929,2.97793994 C3.93730014,2.12989739 5.2053427,1.7054293 6.48857674,1.79836547 C8.27044908,1.86002505 10.0264065,2.22908888 11.6813853,2.88857824 C11.2819384,4.82147186 12.5258533,6.71236547 14.458747,7.11181228 C15.7214278,7.37185483 17.0261087,6.93308888 17.8741512,5.96262079 C18.2575129,6.19496122 18.6426618,6.42730164 19.0269172,6.68645058 C14.3318533,10.1670889 10.1711725,14.3152591 6.67623631,19.0004931 C5.26253419,16.9130038 4.06866185,14.6843229 3.11159802,12.3519825 Z M16.9805342,3.58559951 C16.9778533,3.72053568 16.9590874,3.85636547 16.9269172,3.98772717 L16.9269172,4.09496122 C16.9010023,4.18611015 16.8688321,4.27636547 16.8286193,4.36304632 L16.7392576,4.47921654 C16.6901087,4.566791 16.6329172,4.650791 16.5694704,4.7294293 L16.5158533,4.79198249 C16.4345342,4.88402505 16.3451725,4.96802505 16.2468746,5.04219526 C15.940364,5.26113143 15.5713001,5.37640803 15.1933001,5.37283356 C14.2058533,5.37283356 13.4060661,4.57304632 13.4060661,3.58559951 C13.4060661,2.59815271 14.2058533,1.79836547 15.1933001,1.79836547 C16.1798533,1.79836547 16.9805342,2.59815271 16.9805342,3.58559951 Z M34.6205342,1.79836547 C35.9073427,1.70274845 37.1789597,2.12721654 38.1503214,2.97793994 C39.7758108,4.60432292 39.7230874,8.01793994 38.0073427,12.3519825 C37.047598,14.6852165 35.8501512,16.9130038 34.4328746,19.0004931 C32.6956831,16.6574293 30.7869172,14.4475144 28.7217682,12.3877272 C26.6655555,10.3270463 24.4574278,8.42096122 22.1188321,6.68645058 C26.7388321,3.58559951 31.2784065,1.79836547 34.6205342,1.79836547 Z M39.4094278,1.70900377 C38.1074278,0.520493132 36.3809597,-0.0916345279 34.6205342,0.0111314296 C30.8137257,0.0111314296 25.7647895,2.01283356 20.5550023,5.57836547 C19.9205342,5.1494293 19.2950023,4.74730164 18.6784065,4.36304632 C19.0617682,2.42657824 17.8035555,0.545514408 15.8670874,0.162152706 C14.6294278,-0.0835919747 13.3551299,0.341769727 12.5124491,1.2800676 C10.594747,0.505301642 8.55640653,0.0754718551 6.48857674,0.0111314296 C4.72904482,-0.0916345279 3.00168312,0.520493132 1.69968312,1.70900377 C-1.66121049,5.06900377 0.135853336,12.6290038 5.55921504,20.5643229 C0.135853336,28.4996421 -1.66121049,36.0596421 1.69968312,39.4196421 C3.00168312,40.6081527 4.72904482,41.2202804 6.48857674,41.1175144 C10.2953853,41.1175144 15.3362789,39.1158123 20.5550023,35.5502804 C25.7647895,39.1247485 30.8137257,41.1175144 34.6205342,41.1175144 C36.3809597,41.2202804 38.1074278,40.6081527 39.4094278,39.4196421 C42.7703214,36.0596421 40.9732576,28.4996421 35.5498959,20.5643229 C40.9732576,12.6290038 42.7703214,5.06900377 39.4094278,1.70900377 Z" id="Fill-2" fill="#334966"></path>
            <circle id="Oval-32" fill="#00A4FF" cx="15.1914894" cy="3.57446809" r="1.78723404"></circle>
        </g>
    </g>
</svg>